<?xml version="1.0" encoding="utf-8"?>
<!-- Generator: Adobe Illustrator 14.0.0, SVG Export Plug-In . SVG Version: 6.00 Build 43363)  -->
<!DOCTYPE svg PUBLIC "-//W3C//DTD SVG 1.1//EN" "http://www.w3.org/Graphics/SVG/1.1/DTD/svg11.dtd">
<svg version="1.1" id="Layer_8" xmlns="http://www.w3.org/2000/svg" xmlns:xlink="http://www.w3.org/1999/xlink" x="0px" y="0px"
	 width="438px" height="451px" viewBox="0 -0.104 438 451" enable-background="new 0 -0.104 438 451" xml:space="preserve">
<text transform="matrix(1 0 0 1 57.0972 104.1724)" fill="#F5F5F5" font-family="'Niconne-Regular'" font-size="91.9564">Beautiful</text>
<g>
	<g>
		<path fill="#F5F5F5" d="M106.698,142.21c-1.471-0.218-2.943-0.564-4.416-1.037c-1.471-0.472-3.015-1.034-4.625-1.688
			c0-1.264,0-1.896,0-3.16c7.85,0,15.699,0.001,23.549,0c0,1.264,0,1.896,0,3.16c-2.383,1.089-4.906,1.999-7.569,2.724
			c-5.855,23.458-11.707,46.917-17.558,70.376c-2.607,0.522-3.911,0.785-6.519,1.308c-5.639-19.755-11.283-39.51-16.925-59.264
			c-5.539,19.318-11.073,38.638-16.613,57.956c-2.565,0.522-3.847,0.785-6.411,1.308C43.408,190,37.204,166.105,31.002,142.21
			c-1.403-0.363-2.769-0.763-4.1-1.198c-1.332-0.436-2.628-0.943-3.891-1.526c0-1.264,0-1.895,0-3.16c9.112,0,18.223,0,27.334,0
			c0,1.264,0,1.896,0,3.16c-1.332,0.509-2.698,1-4.1,1.47c-1.403,0.473-2.909,0.891-4.52,1.254
			c3.464,14.637,6.938,29.27,10.408,43.904c0.925,5.666,1.387,8.496,2.312,14.161c0.084,0,0.125,0,0.209,0
			c1.472-5.752,2.208-8.627,3.68-14.379c4.734-16.523,9.464-33.046,14.194-49.57c1.429,0,2.143,0,3.573,0
			c5.083,16.523,10.165,33.046,15.245,49.57c1.219,5.665,1.829,8.496,3.049,14.161c0.084,0,0.126,0,0.211,0
			c0.967-5.752,1.451-8.627,2.417-14.379C100.249,171.189,103.474,156.7,106.698,142.21z"/>
		<path fill="#F5F5F5" d="M158.635,204.961c-0.562,1.236-1.438,2.397-2.629,3.485c-1.192,1.09-2.56,2.034-4.101,2.832
			c-1.542,0.799-3.224,1.435-5.045,1.907c-1.822,0.472-3.678,0.708-5.57,0.708c-4.136,0-7.782-0.672-10.936-2.015
			c-3.154-1.343-5.782-3.269-7.885-5.774c-2.103-2.506-3.698-5.503-4.784-8.988c-1.086-3.486-1.795-7.586-1.627-11.766
			c0.303-7.559,1.06-14.999,6.202-21.242c3.996-4.853,9.987-7.299,17.556-7.299c2.453,0,4.871,0.345,7.255,1.035
			c2.381,0.69,4.504,1.835,6.36,3.432c1.856,1.597,3.364,3.722,4.519,6.373c1.156,2.652,1.735,5.937,1.735,9.859
			c0,1.235-0.054,2.489-0.159,3.758c-0.105,1.271-0.299,2.633-0.578,4.085c-10.934,0-21.866,0-32.799,0
			c0,3.051,0.368,5.903,1.104,8.553c0.735,2.651,1.84,4.958,3.311,6.919c1.471,1.961,3.329,3.503,5.571,4.628
			c2.243,1.125,4.871,1.69,7.885,1.69c2.453,0,4.943-0.364,7.466-1.09c2.522-0.726,4.415-1.669,5.675-2.832
			C157.75,203.915,158.045,204.264,158.635,204.961z M139.393,161.601c-3.995,0-7.041,1.398-9.144,4.194
			c-2.103,2.796-3.365,7.718-3.785,14.762c7.709,0,15.419,0,23.129,0c0.069-0.653,0.122-1.289,0.157-1.906
			c0.035-0.615,0.051-1.216,0.051-1.798c0-4.647-0.84-8.351-2.523-11.111C145.597,162.982,142.967,161.601,139.393,161.601z"/>
		<path fill="#F5F5F5" d="M170.088,138.289c-3.195-0.349-4.792-0.524-7.988-0.873c0-1.134,0-1.699,0-2.833
			c2.17-0.942,4.607-1.706,7.305-2.287c2.697-0.581,5.2-1.126,7.513-1.635c1.05,0,1.577,0,2.627,0c0,12.746,0,25.493,0,38.239
			c0.083,0,0.124,0,0.208,0c1.19-3.705,3.207-6.646,6.044-8.825c2.839-2.179,5.974-3.269,9.407-3.269
			c6.375,0,11.446,2.281,14.663,6.754c4.153,5.776,5.498,13.886,5.096,20.808c-0.461,7.958-1.237,15.624-6.989,21.788
			c-5.003,5.363-12.851,7.51-20.127,7.409c-1.727-0.023-3.504-0.128-5.254-0.382c-1.75-0.254-3.432-0.564-5.042-0.926
			c-1.613-0.363-3.069-0.798-4.365-1.307s-2.327-1.017-3.098-1.526C170.088,185.714,170.088,162.001,170.088,138.289z
			 M192.368,163.563c-3.363,0-6.096,1.182-8.197,3.54c-2.103,2.36-3.645,5.357-4.624,8.988c0,10.132,0,20.263,0,30.396
			c1.26,0.727,2.802,1.29,4.624,1.688c1.82,0.399,3.75,0.6,5.782,0.6c4.624,0,8.264-2.088,10.928-6.265
			c2.662-4.176,3.995-10.222,3.995-18.139c0-2.833-0.228-5.519-0.684-8.062c-0.456-2.542-1.192-4.758-2.207-6.646
			c-1.015-1.887-2.311-3.376-3.886-4.466C196.521,164.107,194.609,163.563,192.368,163.563z"/>
		<path fill="#F5F5F5" d="M247.651,200.167c0-2.032-0.615-3.759-1.839-5.175c-1.226-1.416-2.785-2.742-4.676-3.976
			c-1.892-1.234-3.908-2.436-6.043-3.595c-2.137-1.162-4.153-2.523-6.044-4.084c-1.891-1.562-3.452-3.361-4.678-5.394
			c-1.224-2.032-1.839-4.538-1.839-7.517c0-1.961,0.437-3.775,1.314-5.446c0.876-1.669,2.051-3.105,3.522-4.304
			c1.472-1.197,3.185-2.141,5.147-2.832c1.96-0.689,4.065-1.036,6.307-1.036c3.783,0,6.881,0.218,9.3,0.654
			c2.417,0.436,6.566,1.167,6.991,1.852c0.462,0.748-0.612,4.669-0.998,7.028c-0.385,2.36-0.93,4.776-1.63,7.245
			c-1.051,0-1.578,0-2.628,0c-1.597-4.444-2.396-6.667-3.993-11.112c-0.841-0.363-1.785-0.6-2.836-0.709
			c-1.051-0.108-2.14-0.163-3.261-0.163c-1.26,0-2.363,0.237-3.308,0.709c-0.945,0.472-1.753,1.071-2.417,1.797
			c-0.667,0.728-1.176,1.563-1.526,2.507c-0.352,0.945-0.524,1.891-0.524,2.833c0,1.961,0.614,3.65,1.838,5.066
			c1.225,1.416,2.786,2.724,4.678,3.921c1.89,1.198,3.905,2.378,6.042,3.54c2.136,1.161,4.153,2.47,6.043,3.922
			c1.892,1.452,3.453,3.143,4.677,5.066c1.226,1.924,1.838,4.23,1.838,6.917c0,2.47-0.509,4.687-1.523,6.646
			c-1.015,1.961-2.414,3.632-4.201,5.011c-1.787,1.381-3.855,2.45-6.202,3.213c-2.349,0.763-4.854,1.145-7.517,1.145
			c-3.013,0-5.779-0.273-8.301-0.818c-2.521-0.545-7.281-1.422-7.884-2.341c-0.586-0.893,0.456-5.139,0.945-7.573
			c0.491-2.431,1.122-4.773,1.894-7.025c1.05,0,1.577,0,2.628,0c1.849,4.75,2.773,7.124,4.624,11.874
			c0.771,0.582,1.7,0.909,2.785,0.981c1.083,0.072,2.085,0.109,2.996,0.109c3.081,0,5.571-0.872,7.463-2.614
			C246.707,204.744,247.651,202.637,247.651,200.167z"/>
		<path fill="#F5F5F5" d="M287.169,212.586c-7.777,0-15.555,0-23.332,0c0-1.09,0-1.633,0-2.723c1.051-0.581,2.136-1.072,3.257-1.471
			c1.12-0.399,2.347-0.78,3.679-1.144c0-14.271,0-28.543,0-42.815c-2.773-0.349-4.163-0.522-6.936-0.871c0-1.134,0-1.701,0-2.833
			c2.031-0.872,4.239-1.634,6.622-2.288c2.381-0.654,4.766-1.197,7.146-1.633c1.051,0,1.576,0,2.627,0c0,16.813,0,33.626,0,50.44
			c1.402,0.364,2.664,0.745,3.784,1.144c1.121,0.399,2.172,0.891,3.153,1.471C287.168,210.954,287.169,211.497,287.169,212.586z
			 M268.777,139.595c0-1.961,0.613-3.521,1.838-4.685c1.226-1.161,2.855-1.742,4.888-1.742c2.031,0,3.645,0.582,4.834,1.742
			c1.19,1.161,1.789,2.724,1.789,4.685s-0.599,3.506-1.789,4.631c-1.193,1.127-2.802,1.689-4.834,1.689
			c-2.034,0-3.663-0.563-4.888-1.689C269.392,143.101,268.777,141.556,268.777,139.595z"/>
		<path fill="#F5F5F5" d="M290.114,160.855c2.662-1.801,5.464-3.079,8.409-3.829c0-3.704,0-5.557,0-9.26
			c0.91-0.725,1.98-1.433,3.206-2.123c1.226-0.69,2.437-1.29,3.628-1.799c1.053,0,1.576,0,2.629,0c0,5.709,0,8.562,0,14.271
			c6.307,0,9.463,0.001,15.771,0.001c0,2.266,0,3.399,0,5.665c-6.308,0-9.464,0-15.771,0c0,10.479,0,20.957,0,31.435
			c0,4.337,0.667,7.409,1.996,9.214c1.331,1.807,3.329,2.71,5.994,2.71c1.262,0,2.838-0.091,4.731-0.272
			c1.892-0.181,3.5-0.527,4.834-1.036c0.295,0.654,0.441,0.981,0.736,1.634c-0.562,0.654-1.349,1.345-2.364,2.07
			c-1.017,0.727-2.174,1.417-3.469,2.07c-1.296,0.654-2.718,1.199-4.259,1.635c-1.543,0.436-3.119,0.653-4.731,0.653
			c-4.204,0-7.413-1.23-9.619-3.686c-2.209-2.458-3.312-6.437-3.312-11.934c0-11.498,0-22.996,0-34.494c-3.364,0-5.045,0-8.409,0
			C290.114,162.61,290.114,162.025,290.114,160.855z"/>
		<path fill="#F5F5F5" d="M371.799,204.961c-0.562,1.236-1.438,2.397-2.63,3.485c-1.19,1.09-2.559,2.034-4.101,2.832
			c-1.541,0.799-3.223,1.435-5.044,1.907c-1.822,0.472-3.682,0.708-5.573,0.708c-4.136,0-7.778-0.671-10.934-2.015
			s-5.781-3.27-7.885-5.775c-2.103-2.506-3.698-5.503-4.783-8.988c-1.087-3.486-1.796-7.586-1.628-11.767
			c0.302-7.561,1.061-14.997,6.202-21.243c3.994-4.852,9.985-7.299,17.555-7.299c2.453,0,4.873,0.345,7.257,1.036
			c2.382,0.689,4.502,1.836,6.358,3.432c1.857,1.596,3.366,3.721,4.52,6.372c1.157,2.652,1.738,5.938,1.738,9.86
			c0,1.235-0.055,2.488-0.159,3.757c-0.104,1.271-0.299,2.633-0.577,4.085c-10.936,0-21.87,0-32.805,0
			c0,3.051,0.371,5.904,1.107,8.553c0.735,2.651,1.838,4.958,3.31,6.918c1.471,1.961,3.33,3.503,5.572,4.628
			c2.241,1.125,4.87,1.69,7.886,1.69c2.453,0,4.939-0.365,7.462-1.091c2.522-0.725,4.417-1.668,5.678-2.831
			C370.915,203.915,371.209,204.264,371.799,204.961z M352.558,161.601c-3.994,0-7.042,1.399-9.146,4.195
			c-2.101,2.796-3.364,7.718-3.783,14.762c7.709,0,15.419,0,23.128,0c0.069-0.654,0.123-1.289,0.159-1.906
			c0.034-0.615,0.051-1.216,0.051-1.798c0-4.647-0.84-8.35-2.522-11.111C358.762,162.982,356.132,161.601,352.558,161.601z"/>
		<path fill="#F5F5F5" d="M406.177,200.167c0-2.032-0.615-3.759-1.84-5.175c-1.226-1.416-2.788-2.742-4.679-3.976
			c-1.892-1.234-3.909-2.436-6.045-3.595c-2.139-1.162-4.151-2.523-6.045-4.084c-1.892-1.562-3.453-3.361-4.679-5.394
			c-1.226-2.032-1.84-4.538-1.84-7.517c0-1.961,0.438-3.775,1.314-5.446c0.877-1.669,2.052-3.105,3.523-4.304
			c1.471-1.197,3.188-2.142,5.151-2.832c1.961-0.689,4.064-1.036,6.309-1.036c3.785,0,6.883,0.218,9.302,0.654
			s6.567,1.167,6.991,1.852c0.462,0.748-0.612,4.668-0.997,7.027c-0.386,2.36-0.928,4.776-1.628,7.245c-1.051,0-1.579,0-2.63,0
			c-1.599-4.444-2.397-6.667-3.995-11.112c-0.843-0.363-1.788-0.6-2.839-0.709c-1.052-0.108-2.139-0.163-3.26-0.163
			c-1.261,0-2.368,0.237-3.312,0.709s-1.751,1.072-2.415,1.798c-0.669,0.727-1.175,1.562-1.525,2.505
			c-0.352,0.945-0.527,1.89-0.527,2.833c0,1.961,0.614,3.65,1.84,5.066s2.785,2.724,4.679,3.922
			c1.892,1.198,3.906,2.379,6.045,3.541c2.136,1.161,4.155,2.47,6.047,3.922s3.45,3.143,4.676,5.065
			c1.226,1.924,1.841,4.231,1.841,6.917c0,2.47-0.509,4.687-1.522,6.646c-1.016,1.961-2.42,3.631-4.205,5.011
			c-1.789,1.381-3.857,2.451-6.204,3.214c-2.35,0.762-4.854,1.144-7.518,1.144c-3.015,0-5.782-0.272-8.306-0.817
			c-2.521-0.545-7.284-1.421-7.886-2.341c-0.585-0.893,0.455-5.139,0.945-7.572c0.49-2.432,1.121-4.773,1.894-7.025
			c1.051,0,1.576,0,2.628,0c1.851,4.75,2.776,7.124,4.627,11.875c0.771,0.581,1.7,0.908,2.785,0.979
			c1.084,0.072,2.085,0.11,2.996,0.11c3.083,0,5.572-0.872,7.466-2.615C405.231,204.743,406.177,202.637,406.177,200.167z"/>
	</g>
</g>
<text transform="matrix(1 0 0 1 129.9907 281.0688)" fill="#F5F5F5" font-family="'PTSerif-Regular'" font-size="52.1086" letter-spacing="11">BORN</text>
<line fill="none" x1="35.201" y1="281.07" x2="136.353" y2="281.07"/>
<line fill="none" x1="301.875" y1="281.07" x2="429.423" y2="281.07"/>
<text transform="matrix(1 0 0 1 103.4009 392.1694)" fill="#F5F5F5" font-family="'PTSerif-Regular'" font-size="114.9455" letter-spacing="-2">Here</text>
<g>
	<path fill="#F5F5F5" d="M1.321,266.897"/>
	<g>
		<path fill="#D1D3D4" d="M0.842,267.204c0.316,0,1.689-0.614,0.958-0.614C1.484,266.59,0.111,267.204,0.842,267.204L0.842,267.204z
			"/>
	</g>
</g>
<g>
	<polygon fill="#F5F5F5" points="226.869,24.69 218.924,20.403 210.88,24.516 212.505,15.633 206.111,9.259 215.059,8.056 
		219.145,0 223.051,8.144 231.977,9.537 225.438,15.772 	"/>
</g>
<g>
	<polygon fill="#F5F5F5" points="195.949,20.538 190.677,17.691 185.339,20.421 186.418,14.528 182.174,10.297 188.111,9.499 
		190.824,4.153 193.416,9.558 199.339,10.481 195,14.62 	"/>
</g>
<g>
	<polygon fill="#F5F5F5" points="253.312,20.538 248.039,17.691 242.7,20.421 243.779,14.528 239.536,10.297 245.473,9.499 
		248.185,4.153 250.777,9.558 256.7,10.481 252.361,14.62 	"/>
</g>
<g>
	<polygon fill="#F5F5F5" points="227.241,450.337 219.296,446.049 211.253,450.163 212.878,441.281 206.483,434.905 
		215.431,433.702 219.518,425.647 223.424,433.791 232.349,435.183 225.812,441.418 	"/>
</g>
<g>
	<polygon fill="#F5F5F5" points="196.321,446.184 191.049,443.339 185.712,446.068 186.79,440.175 182.547,435.944 188.484,435.146 
		191.196,429.8 193.789,435.205 199.712,436.127 195.373,440.266 	"/>
</g>
<g>
	<polygon fill="#F5F5F5" points="253.683,446.184 248.411,443.339 243.073,446.068 244.152,440.175 239.909,435.944 
		245.846,435.146 248.558,429.8 251.15,435.205 257.073,436.127 252.734,440.266 	"/>
</g>
<rect y="260.021" fill="#F5F5F5" width="117.258" height="4.606"/>
<rect x="316.585" y="260.058" fill="#F5F5F5" width="120.971" height="4.605"/>
</svg>
